<?xml version="1.0" encoding="utf-8"?>
<!-- Generator: Adobe Illustrator 19.2.0, SVG Export Plug-In . SVG Version: 6.00 Build 0)  -->
<svg xmlns="http://www.w3.org/2000/svg" xmlns:xlink="http://www.w3.org/1999/xlink" version="1.1" id="accoldair" x="0px" y="0px" viewBox="0 0 232 213.1683" enable-background="new 0 0 232 213.1683" xml:space="preserve" width="512" height="512">
<g>
	<path fill="#5CB0FF" d="M211.9805,49.1683H20.0195C13.3926,49.1683,8,54.5707,8,61.2074v55.9219   c0,6.6367,5.3926,12.0391,12.0195,12.0391h191.9609c6.627,0,12.0195-5.4023,12.0195-12.0391V61.2074   C224,54.5707,218.6074,49.1683,211.9805,49.1683z M188.0566,117.1683H40v-8h148.0566V117.1683z M208,105.1683H24v-8h184V105.1683z"/>
	<circle fill="#FFFFFF" cx="116" cy="181.1683" r="4"/>
	<path fill="#1C71DA" d="M211.9805,41.1683H20.0195C8.9805,41.1683,0,50.1566,0,61.2074v55.9219   c0,11.0508,8.9805,20.0391,20.0195,20.0391h191.9609c11.0391,0,20.0195-8.9883,20.0195-20.0391V61.2074   C232,50.1566,223.0195,41.1683,211.9805,41.1683z M224,117.1293c0,6.6367-5.3926,12.0391-12.0195,12.0391H20.0195   C13.3926,129.1683,8,123.766,8,117.1293V61.2074c0-6.6367,5.3926-12.0391,12.0195-12.0391h191.9609   c6.627,0,12.0195,5.4023,12.0195,12.0391V117.1293z"/>
	<rect x="40" y="109.1683" fill="#1C71DA" width="148.0566" height="8"/>
	<rect x="24" y="97.1683" fill="#1C71DA" width="184" height="8"/>
	<path fill="#1C71DA" d="M200,189.1683c-2.209,0-4,1.7891-4,4c0,6.6172-5.3828,12-12,12s-12-5.3828-12-12v-44h-8v44   c0,11.0273,8.9727,20,20,20s20-8.9727,20-20C204,190.9574,202.209,189.1683,200,189.1683z"/>
	<path fill="#1C71DA" d="M142.8281,170.3402c-1.5625-1.5625-4.0938-1.5625-5.6562,0l-6.8281,6.8281h-3.0808   c-1.2083-3.3887-3.8743-6.0547-7.2629-7.2629v-3.0808l6.8281-6.8281c1.5625-1.5625,1.5625-4.0938,0-5.6562s-4.0938-1.5625-5.6562,0   L116,159.5121l-5.1719-5.1719c-1.5625-1.5625-4.0938-1.5625-5.6562,0s-1.5625,4.0938,0,5.6562L112,166.8246v3.0808   c-3.3887,1.2083-6.0547,3.8743-7.2629,7.2629h-3.0808l-6.8281-6.8281c-1.5625-1.5625-4.0938-1.5625-5.6562,0   s-1.5625,4.0938,0,5.6562l5.1719,5.1719l-5.1719,5.1719c-1.5625,1.5625-1.5625,4.0938,0,5.6562   c0.7812,0.7812,1.8047,1.1719,2.8281,1.1719s2.0469-0.3906,2.8281-1.1719l6.8281-6.8281h3.0811   c1.2083,3.3887,3.874,6.0544,7.2627,7.2627v3.0811l-6.8281,6.8281c-1.5625,1.5625-1.5625,4.0938,0,5.6562s4.0938,1.5625,5.6562,0   L116,202.8246l5.1719,5.1719c0.7812,0.7812,1.8047,1.1719,2.8281,1.1719s2.0469-0.3906,2.8281-1.1719   c1.5625-1.5625,1.5625-4.0938,0-5.6562L120,195.5121v-3.0808c3.3887-1.2083,6.0547-3.8743,7.2629-7.2629h3.0808l6.8281,6.8281   c0.7812,0.7812,1.8047,1.1719,2.8281,1.1719s2.0469-0.3906,2.8281-1.1719c1.5625-1.5625,1.5625-4.0938,0-5.6562l-5.1719-5.1719   l5.1719-5.1719C144.3906,174.434,144.3906,171.9027,142.8281,170.3402z M116,185.1683c-2.2051,0-4-1.793-4-4s1.7949-4,4-4   s4,1.793,4,4S118.2051,185.1683,116,185.1683z"/>
	<path fill="#1C71DA" d="M64,193.1683c0,6.6172-5.3828,12-12,12s-12-5.3828-12-12c0-2.2109-1.791-4-4-4s-4,1.7891-4,4   c0,11.0273,8.9727,20,20,20s20-8.9727,20-20v-44h-8V193.1683z"/>
</g>
<path fill="#FF5D5D" d="M184.3854,164c-1.0239,0-2.0474-0.3906-2.8286-1.1719c-1.562-1.5615-1.562-4.0947,0-5.6562l14.1421-14.1416  c1.563-1.5615,4.0952-1.5615,5.6572,0s1.562,4.0947,0,5.6562l-14.1421,14.1416C186.4328,163.6094,185.4088,164,184.3854,164z"/>
<path fill="#FF5D5D" d="M198.5275,164.001c-1.0239,0-2.0474-0.3906-2.8286-1.1719l-14.1421-14.1426  c-1.562-1.5615-1.562-4.0947,0-5.6562c1.563-1.5615,4.0952-1.5615,5.6572,0l14.1421,14.1426c1.562,1.5615,1.562,4.0947,0,5.6562  C200.5748,163.6104,199.5509,164.001,198.5275,164.001z"/>
<path fill="#00D40B" d="M26.3854,168c-7.7197,0-14-6.2803-14-14s6.2803-14,14-14s14,6.2803,14,14S34.1051,168,26.3854,168z   M26.3854,148c-3.3086,0-6,2.6914-6,6s2.6914,6,6,6s6-2.6914,6-6S29.694,148,26.3854,148z"/>
<path fill="#FFC504" d="M155.6989,30.6279L155.6989,30.6279c-1.061,0-2.0786-0.4219-2.8286-1.1719l-11.3135-11.3145  c-1.562-1.5615-1.562-4.0947,0-5.6562l11.3135-11.3135c1.5625-1.5625,4.0952-1.5625,5.6567,0l11.314,11.3135  c0.7505,0.75,1.1719,1.7676,1.1719,2.8281s-0.4214,2.0781-1.1714,2.8281l-11.314,11.3145  C157.7775,30.2061,156.7599,30.6279,155.6989,30.6279z M150.0421,15.3135l5.6567,5.6572l5.6572-5.6572l-5.6572-5.6562  L150.0421,15.3135z"/>
</svg>
