<?xml version="1.0" encoding="iso-8859-1"?>
<!-- Generator: Adobe Illustrator 19.0.0, SVG Export Plug-In . SVG Version: 6.00 Build 0)  -->
<svg version="1.1" id="Layer_1" xmlns="http://www.w3.org/2000/svg" xmlns:xlink="http://www.w3.org/1999/xlink" x="0px" y="0px"
	 viewBox="0 0 512 512" style="enable-background:new 0 0 512 512;" xml:space="preserve">
<rect x="88.123" y="8.001" style="fill:#C8546F;" width="336" height="471.998"/>
<rect x="88.123" y="448.003" style="fill:#FEC986;" width="336" height="32.001"/>
<rect x="88.123" y="8.001" style="fill:#FEB860;" width="336" height="112.003"/>
<g>
	<circle style="fill:#9B4573;" cx="240.114" cy="72.005" r="16"/>
	<rect x="312.119" y="39.998" style="fill:#9B4573;" width="79.996" height="48"/>
	<circle style="fill:#9B4573;" cx="256.118" cy="288" r="112.003"/>
</g>
<circle style="fill:#FFFFFF;" cx="256.118" cy="288" r="79.996"/>
<g>
	<path style="fill:#1D1D1B;" d="M431.883,0H80.117v488.001h32V512h15.999v-23.999h256.001V512h15.999v-23.999h31.764V0H431.883z
		 M415.882,472H96.118V16h319.765L415.882,472L415.882,472z"/>
	<path style="fill:#1D1D1B;" d="M256.118,408.001c-66.168,0-120-53.832-120-120.001S189.949,168,256.118,168s120,53.832,120,120.001
		S322.286,408.001,256.118,408.001z M256.118,184.001c-57.346,0-104.001,46.654-104.001,104S198.772,392,256.118,392
		s104-46.654,104-103.999S313.463,184.001,256.118,184.001z"/>
	<path style="fill:#1D1D1B;" d="M256.118,376.001c-48.524,0-88-39.477-88-88c0-48.524,39.476-88.001,88-88.001
		c48.523,0,87.999,39.477,87.999,88.001C344.118,336.524,304.642,376.001,256.118,376.001z M256.118,216c-39.701,0-72,32.299-72,72
		c0,39.7,32.299,71.999,72,71.999c39.7,0,72-32.299,72-71.999C328.118,248.298,295.819,216,256.118,216z"/>
	<rect x="104.116" y="440.001" style="fill:#1D1D1B;" width="304.003" height="16"/>
	
		<rect x="236.134" y="247.712" transform="matrix(-0.7071 -0.7071 0.7071 -0.7071 221.6059 643.7795)" style="fill:#1D1D1B;" width="16" height="56.564"/>
	
		<rect x="264.135" y="284.683" transform="matrix(-0.7071 -0.7071 0.7071 -0.7071 255.2624 697.7261)" style="fill:#1D1D1B;" width="16" height="22.627"/>
	<rect x="104.116" y="112.003" style="fill:#1D1D1B;" width="304.003" height="16"/>
</g>
<g>
	<rect x="112.118" y="32" style="fill:#FFFFFF;" width="15.999" height="16"/>
	<rect x="112.118" y="56" style="fill:#FFFFFF;" width="15.999" height="16"/>
	<rect x="112.118" y="79.996" style="fill:#FFFFFF;" width="15.999" height="16"/>
</g>
<g>
	<rect x="136.123" y="32" style="fill:#1D1D1B;" width="64.003" height="16"/>
	<rect x="136.123" y="56" style="fill:#1D1D1B;" width="64.003" height="16"/>
	<rect x="136.123" y="79.996" style="fill:#1D1D1B;" width="64.003" height="16"/>
	<path style="fill:#1D1D1B;" d="M400.118,96.001h-96V32h96L400.118,96.001L400.118,96.001z M320.118,80h64V48h-64V80z"/>
</g>
<g>
	<rect x="280.123" y="32" style="fill:#FFFFFF;" width="16" height="16"/>
	<rect x="280.123" y="56" style="fill:#FFFFFF;" width="16" height="16"/>
	<rect x="280.123" y="79.996" style="fill:#FFFFFF;" width="16" height="16"/>
</g>
<path style="fill:#1D1D1B;" d="M248.118,49.376V32h-15.999v17.377c-9.311,3.303-15.999,12.195-15.999,22.625
	c0,13.233,10.766,24,24,24s24-10.767,24-24C264.118,61.572,257.429,52.679,248.118,49.376z M240.117,80c-4.411,0-8-3.588-8-8
	s3.588-8.001,8-8.001s8.001,3.588,8.001,8.001C248.118,76.411,244.529,80,240.117,80z"/>
<g>
	<rect x="112.118" y="144" style="fill:#FFFFFF;" width="15.999" height="16"/>
	<rect x="136.123" y="144" style="fill:#FFFFFF;" width="15.999" height="16"/>
	<rect x="160.118" y="144" style="fill:#FFFFFF;" width="16" height="16"/>
</g>
<g>
</g>
<g>
</g>
<g>
</g>
<g>
</g>
<g>
</g>
<g>
</g>
<g>
</g>
<g>
</g>
<g>
</g>
<g>
</g>
<g>
</g>
<g>
</g>
<g>
</g>
<g>
</g>
<g>
</g>
</svg>
